<svg version="1.1" id="Layer_1" xmlns="http://www.w3.org/2000/svg" xmlns:xlink="http://www.w3.org/1999/xlink" x="0px" y="0px"
	 width="100%" viewBox="0 0 200 200" enable-background="new 0 0 200 200" xml:space="preserve">
<path fill="#E6D9FD" opacity="1.000000" stroke="none" 
	d="
M1.000000,84.000000 
	C1.000000,56.000008 1.000000,28.500013 1.000000,1.000015 
	C67.666649,1.000010 134.333298,1.000010 200.999954,1.000005 
	C200.999969,67.666626 200.999969,134.333252 200.999985,200.999908 
	C134.333389,200.999939 67.666779,200.999939 1.000081,200.999969 
	C1.000000,162.166672 1.000000,123.333336 1.000000,84.000000 
M175.210831,139.750916 
	C175.388245,139.441345 175.314774,139.221970 174.351196,138.650604 
	C173.582275,138.663956 172.813339,138.677322 171.708115,138.431946 
	C171.405182,138.341110 171.143097,138.408691 170.017197,138.432083 
	C143.036270,138.465897 116.055336,138.499695 88.270920,138.231552 
	C80.215118,137.796021 73.283035,134.528000 66.676582,129.247375 
	C65.851692,128.498199 65.026802,127.749008 63.941063,126.786781 
	C63.941063,126.786781 63.827801,126.469589 63.901707,125.642944 
	C62.833038,120.390190 61.048046,115.603928 55.845089,113.059120 
	C55.845089,113.059120 55.798000,113.165840 55.875816,112.544205 
	C55.585468,112.028549 55.295116,111.512901 54.594452,110.263626 
	C54.699451,102.841820 54.804451,95.420006 55.094032,87.308678 
	C62.253166,73.463722 73.189148,65.034950 89.956612,63.769588 
	C96.099625,63.785355 102.242760,63.833439 108.385628,63.810959 
	C128.634476,63.736870 148.883255,63.637241 169.890182,63.752304 
	C171.585388,63.501202 173.280609,63.250099 175.078873,62.405533 
	C174.771912,61.909145 174.464951,61.412762 174.017410,60.223366 
	C169.563766,52.955288 166.485565,43.919178 154.826080,44.881603 
	C154.218613,44.587685 153.611130,44.293766 152.813568,43.695305 
	C152.541153,43.796818 152.268753,43.898331 151.483780,44.388905 
	C151.306885,44.779285 151.129990,45.169662 150.437912,45.736553 
	C150.262329,45.690430 150.086761,45.644310 149.972748,44.717777 
	C149.008591,41.835602 153.625320,38.959579 150.579926,35.945896 
	C150.751205,35.294334 150.922485,34.642773 150.576752,33.739506 
	C150.068558,33.478104 149.560379,33.216705 148.698944,32.378262 
	C147.605240,31.640348 146.517502,30.893419 145.416885,30.165955 
	C136.727676,24.422716 127.079109,21.164625 116.282379,18.951008 
	C114.191963,19.009060 112.101555,19.067112 109.387947,18.959234 
	C108.961533,18.904623 108.535118,18.850012 107.722679,18.210236 
	C106.812363,18.117924 105.902039,18.025612 104.117416,17.762327 
	C101.747437,17.821789 99.377449,17.881250 96.110291,17.846970 
	C91.078583,18.626143 86.046883,19.405313 80.449844,20.152561 
	C79.955910,20.384138 79.461983,20.615717 78.323463,20.880489 
	C77.914368,21.007460 77.505280,21.134428 76.365395,21.292286 
	C57.159882,27.503260 41.857521,38.936016 31.056252,55.993702 
	C15.841541,80.021225 13.627769,105.572456 23.741224,131.986771 
	C36.119614,164.316620 68.825157,185.833267 103.620018,184.574051 
	C119.326569,184.005646 134.178284,180.011765 147.735947,170.263306 
	C149.093979,169.244141 150.452011,168.224960 151.946518,166.588730 
	C151.967163,166.379074 151.987793,166.169434 151.534409,165.414917 
	C148.347260,165.276993 145.160370,165.027161 141.972916,165.019791 
	C124.853088,164.980240 107.732971,164.967331 90.613441,165.048676 
	C88.727928,165.057617 86.845543,165.725769 84.051598,166.189407 
	C78.024261,166.390457 72.587952,164.550201 66.963699,162.391663 
	C26.970930,147.042709 12.160171,97.114906 37.424152,62.560623 
	C46.979488,49.491508 59.812016,41.573761 75.768936,37.032021 
	C77.487427,36.626534 79.205910,36.221043 81.680725,35.880924 
	C82.423248,35.764679 83.165764,35.648430 84.640587,35.630718 
	C85.110306,35.501682 85.580032,35.372646 86.036179,35.577259 
	C86.036179,35.577259 86.042381,35.911125 86.015175,36.454781 
	C86.010170,36.635948 86.005165,36.817120 86.384804,37.471699 
	C87.256790,37.315334 88.128777,37.158970 89.937981,37.000198 
	C108.624191,37.002476 127.310402,37.004749 145.784454,37.782845 
	C144.115189,38.188477 142.447937,38.936562 140.776337,38.946373 
	C125.332214,39.037033 109.887321,38.997532 94.442657,39.003483 
	C92.302689,39.004307 89.842758,38.572041 89.757408,42.101418 
	C89.838989,42.068550 89.920578,42.035683 90.932434,42.002174 
	C95.622871,42.336205 100.313316,42.670235 105.236534,43.427662 
	C105.437492,43.691418 105.692894,43.882347 106.751144,44.000908 
	C107.499542,44.000656 108.247940,44.000404 108.936958,44.822041 
	C108.917068,45.095993 108.897186,45.369949 108.076050,45.761478 
	C103.085258,45.916691 98.094467,46.071899 92.574219,45.617367 
	C90.690582,45.429253 88.798996,45.087719 86.930099,45.184437 
	C86.562958,45.203438 86.283455,46.915859 85.299454,48.178989 
	C67.187538,54.451656 54.451847,66.071587 48.435467,85.443550 
	C45.854900,93.866943 45.516331,102.372452 47.017506,111.063148 
	C51.195232,135.249176 73.374199,155.199020 97.932541,156.038315 
	C118.950867,155.991180 139.969193,155.944061 161.737930,156.059998 
	C163.111343,155.379456 164.985031,155.056152 165.770737,153.955917 
	C169.003357,149.429077 171.905365,144.666138 174.992920,139.966431 
	C174.992920,139.966431 174.966446,139.903625 175.210831,139.750916 
M176.450531,74.085632 
	C176.275101,74.177544 176.099655,74.269447 174.999969,74.299049 
	C152.034210,74.319626 129.068466,74.340202 105.499245,74.223747 
	C105.300156,74.277702 105.101059,74.331657 104.082039,74.334785 
	C101.398323,74.584015 98.714600,74.833244 95.274612,75.056229 
	C90.744011,77.400177 85.108597,78.746201 81.907089,82.290642 
	C74.689171,90.281731 72.374466,100.203835 76.370171,110.631569 
	C80.287903,120.855774 88.165535,127.330971 98.991287,127.589630 
	C125.101761,128.213486 151.236130,127.866249 177.360474,127.785995 
	C178.553207,127.782333 180.532440,126.792702 180.801285,125.870476 
	C182.256561,120.878418 183.288177,115.762871 184.630646,109.979698 
	C181.689346,109.979698 179.890442,109.980179 178.091522,109.979630 
	C149.803452,109.971046 121.515381,109.966133 93.227310,109.950661 
	C86.999046,109.947250 83.275597,107.779770 82.125481,103.542824 
	C80.741577,98.444618 82.632523,95.257027 89.940025,92.055565 
	C118.957390,92.003761 147.974762,91.951958 177.879227,92.038406 
	C179.796799,92.038406 181.714371,92.038406 184.731354,92.038406 
	C183.415848,86.801407 182.283585,82.293839 181.132080,77.101776 
	C180.936371,76.448372 180.740662,75.794960 180.729904,74.750153 
	C180.729904,74.750153 180.832382,74.330582 180.558105,73.729004 
	C179.375519,73.781509 178.192917,73.834023 176.450531,74.085632 
M159.497894,107.999390 
	C164.939362,107.999390 170.380844,107.999390 175.822311,107.999390 
	C175.819473,107.750923 175.816635,107.502464 175.813797,107.253998 
	C149.937759,107.253998 124.061737,107.253998 98.185699,107.253998 
	C98.184410,107.502464 98.183121,107.750923 98.181831,107.999390 
	C118.287483,107.999390 138.393127,107.999390 159.497894,107.999390 
M103.510284,162.998779 
	C117.615662,162.998779 131.721039,162.998779 145.826416,162.998779 
	C145.824448,162.749115 145.822495,162.499451 145.820526,162.249786 
	C127.272438,162.249786 108.724350,162.249786 90.176254,162.249786 
	C90.170044,162.499451 90.163841,162.749115 90.157631,162.998779 
	C94.277306,162.998779 98.396988,162.998779 103.510284,162.998779 
M82.516586,47.274456 
	C82.267822,47.012760 82.021332,46.748627 81.757477,46.503151 
	C81.750740,46.496887 81.553360,46.695530 81.444893,46.798611 
	C81.693901,47.060333 81.942909,47.322056 82.516586,47.274456 
M160.158035,43.296478 
	C160.078781,43.436295 159.999527,43.576111 159.920258,43.715923 
	C160.049362,43.655731 160.178467,43.595539 160.158035,43.296478 
M95.688789,73.472176 
	C95.881729,73.460777 96.074661,73.449379 96.267601,73.437981 
	C96.138870,73.381409 96.010147,73.324837 95.688789,73.472176 
M161.513855,41.434166 
	C161.513855,41.434166 161.560806,41.520611 161.513855,41.434166 
M89.437454,107.486855 
	C89.437454,107.486855 89.521278,107.442299 89.437454,107.486855 
z"/>
<path fill="#7141F9" opacity="1.000000" stroke="none" 
	d="
M78.968048,20.847296 
	C79.461983,20.615717 79.955910,20.384138 80.836868,20.519173 
	C81.745262,21.231867 82.329185,21.944183 82.778343,21.867470 
	C87.350761,21.086504 91.905464,20.197380 96.447090,19.251844 
	C96.713326,19.196413 96.824265,18.394983 97.007469,17.940712 
	C99.377449,17.881250 101.747437,17.821789 104.609528,18.181290 
	C106.103996,18.665302 107.106354,18.730350 108.108704,18.795401 
	C108.535118,18.850012 108.961533,18.904623 109.785065,19.381771 
	C112.434418,19.596968 114.686653,19.389624 116.938896,19.182280 
	C127.079109,21.164625 136.727676,24.422716 145.416885,30.165955 
	C146.517502,30.893419 147.605240,31.640348 148.498840,32.841522 
	C144.516907,33.903194 140.735092,34.501602 136.639465,35.186211 
	C135.899521,35.214909 135.473358,35.157410 134.748291,34.799332 
	C119.850761,34.364880 105.252182,34.219734 90.653244,34.141468 
	C90.112595,34.138573 89.568443,34.788208 88.761810,35.297897 
	C87.679260,35.611740 86.860817,35.761433 86.042381,35.911125 
	C86.042381,35.911125 86.036179,35.577259 85.923210,35.200291 
	C85.141052,34.629417 84.471855,34.435516 83.802673,34.241615 
	C83.837875,34.671803 83.873085,35.101994 83.908295,35.532181 
	C83.165764,35.648430 82.423248,35.764679 81.024338,35.619957 
	C78.582306,35.893684 76.796661,36.428383 75.011009,36.963078 
	C59.812016,41.573761 46.979488,49.491508 37.424152,62.560623 
	C12.160171,97.114906 26.970930,147.042709 66.963699,162.391663 
	C72.587952,164.550201 78.024261,166.390457 84.825897,166.268616 
	C86.728439,166.549408 87.856682,166.750992 89.286484,167.243347 
	C90.225266,167.684143 90.862282,167.964264 91.499748,167.965302 
	C108.907784,167.993652 126.315910,168.009689 143.723831,167.959015 
	C144.801743,167.955872 145.878036,167.390167 147.292572,167.044693 
	C148.081360,167.038864 148.532654,167.074539 148.825500,167.389832 
	C148.140823,168.595383 147.614578,169.521317 147.088333,170.447235 
	C134.178284,180.011765 119.326569,184.005646 103.620018,184.574051 
	C68.825157,185.833267 36.119614,164.316620 23.741224,131.986771 
	C13.627769,105.572456 15.841541,80.021225 31.056252,55.993702 
	C41.857521,38.936016 57.159882,27.503260 76.911438,21.445692 
	C77.960999,21.348497 78.464523,21.097897 78.968048,20.847296 
z"/>
<path fill="#7141FA" opacity="1.000000" stroke="none" 
	d="
M89.011269,91.935349 
	C82.632523,95.257027 80.741577,98.444618 82.125481,103.542824 
	C83.275597,107.779770 86.999046,109.947250 93.227310,109.950661 
	C121.515381,109.966133 149.803452,109.971046 178.091522,109.979630 
	C179.890442,109.980179 181.689346,109.979698 184.630646,109.979698 
	C183.288177,115.762871 182.256561,120.878418 180.801285,125.870476 
	C180.532440,126.792702 178.553207,127.782333 177.360474,127.785995 
	C151.236130,127.866249 125.101761,128.213486 98.991287,127.589630 
	C88.165535,127.330971 80.287903,120.855774 76.370171,110.631569 
	C72.374466,100.203835 74.689171,90.281731 81.907089,82.290642 
	C85.108597,78.746201 90.744011,77.400177 95.967209,75.335449 
	C98.795967,75.742966 100.930588,75.911469 103.068535,75.993446 
	C129.086868,76.990944 155.199051,73.894814 181.151306,77.786270 
	C182.283585,82.293839 183.415848,86.801407 184.731354,92.038406 
	C181.714371,92.038406 179.796799,92.038406 177.437195,91.743057 
	C176.995178,91.447716 176.995804,90.995163 176.687927,90.715683 
	C175.572372,90.292221 174.764816,90.023071 173.957016,90.022400 
	C146.870911,89.999702 119.784775,89.989479 92.698761,90.044220 
	C91.464844,90.046707 90.232162,90.668678 89.001801,91.235428 
	C89.004684,91.468742 89.011269,91.935349 89.011269,91.935349 
M107.513695,122.992294 
	C130.195587,122.992294 152.877472,122.992294 175.559372,122.992294 
	C152.976944,122.008095 130.400589,122.003922 107.824326,122.046959 
	C107.477898,122.047623 107.132576,122.631615 107.513695,122.992294 
z"/>
<path fill="#7343FA" opacity="1.000000" stroke="none" 
	d="
M97.013069,155.849213 
	C73.374199,155.199020 51.195232,135.249176 47.017506,111.063148 
	C45.516331,102.372452 45.854900,93.866943 48.816223,85.336899 
	C51.101135,86.152893 53.005291,87.075546 54.909447,87.998199 
	C54.804451,95.420006 54.699451,102.841820 54.781731,110.940796 
	C55.245338,112.133926 55.521671,112.649879 55.798000,113.165840 
	C55.798000,113.165840 55.845089,113.059120 55.800735,113.462021 
	C58.446854,118.066475 61.137329,122.268028 63.827801,126.469589 
	C63.827801,126.469589 63.941063,126.786781 64.102654,127.221054 
	C65.156860,128.360184 66.049484,129.065048 66.942108,129.769897 
	C73.283035,134.528000 80.215118,137.796021 88.829208,138.712891 
	C90.302551,139.461868 91.217186,139.961670 92.132698,139.963272 
	C117.265297,140.007172 142.398026,140.018066 167.530487,139.943924 
	C168.662216,139.940582 169.791443,139.090439 170.921844,138.634705 
	C171.143097,138.408691 171.405182,138.341110 172.035477,138.865097 
	C173.218201,139.528839 174.073578,139.759430 174.928940,139.990021 
	C171.905365,144.666138 169.003357,149.429077 165.770737,153.955917 
	C164.985031,155.056152 163.111343,155.379456 161.363708,155.755951 
	C160.989471,155.451904 160.994186,155.006760 160.688660,154.723923 
	C159.908493,154.308029 159.434052,154.059357 158.959213,154.058578 
	C139.376312,154.026306 119.793335,154.000824 100.210533,154.045456 
	C99.141319,154.047913 98.073509,154.658524 97.007004,155.201843 
	C97.008957,155.417633 97.013069,155.849213 97.013069,155.849213 
z"/>
<path fill="#7242F9" opacity="1.000000" stroke="none" 
	d="
M55.001740,87.653442 
	C53.005291,87.075546 51.101135,86.152893 49.033245,85.018280 
	C54.451847,66.071587 67.187538,54.451656 86.006264,48.002872 
	C88.843277,47.293541 90.973473,46.760323 93.103676,46.227108 
	C98.094467,46.071899 103.085258,45.916691 108.870712,45.803410 
	C122.541039,45.759430 135.416702,45.673523 148.559204,45.662865 
	C149.187744,45.691471 149.549469,45.644829 149.911179,45.598190 
	C150.086761,45.644310 150.262329,45.690430 151.107513,45.722008 
	C152.893631,45.647396 154.010162,45.587322 155.126678,45.527248 
	C166.485565,43.919178 169.563766,52.955288 173.693329,60.743271 
	C171.249664,61.508831 169.130478,61.963749 167.010391,61.968147 
	C142.747620,62.018494 118.484596,61.966763 94.222191,62.071045 
	C92.489899,62.078491 90.761948,63.095325 89.031975,63.642818 
	C73.189148,65.034950 62.253166,73.463722 55.001740,87.653442 
z"/>
<path fill="#E7DAF8" opacity="1.000000" stroke="none" 
	d="
M149.941956,45.157982 
	C149.549469,45.644829 149.187744,45.691471 148.282867,45.285927 
	C145.975845,44.555931 144.213470,44.049248 142.447845,44.037598 
	C131.297745,43.964016 120.146919,44.000206 108.996338,44.000153 
	C108.247940,44.000404 107.499542,44.000656 106.259918,43.789341 
	C105.567894,43.314335 105.312912,43.123165 105.003754,43.004261 
	C100.313316,42.670235 95.622871,42.336205 90.466217,42.001087 
	C90.000000,42.000000 89.997238,41.997894 89.997238,41.997894 
	C89.842758,38.572041 92.302689,39.004307 94.442657,39.003483 
	C109.887321,38.997532 125.332214,39.037033 140.776337,38.946373 
	C142.447937,38.936562 144.115189,38.188477 146.095062,37.277206 
	C146.600510,36.354218 146.795380,35.936867 147.340408,35.432114 
	C148.408875,35.371376 149.127167,35.398041 149.865280,35.590172 
	C149.885086,35.755638 149.982285,36.074448 149.982285,36.074448 
	C153.625320,38.959579 149.008591,41.835602 149.941956,45.157982 
z"/>
<path fill="#6438F7" opacity="1.000000" stroke="none" 
	d="
M181.141693,77.444023 
	C155.199051,73.894814 129.086868,76.990944 103.068535,75.993446 
	C100.930588,75.911469 98.795967,75.742966 96.345337,75.348572 
	C98.714600,74.833244 101.398323,74.584015 104.622726,74.480164 
	C105.476517,74.537285 105.789612,74.449028 106.102707,74.360779 
	C129.068466,74.340202 152.034210,74.319626 175.648621,74.489342 
	C176.886795,74.566757 177.476318,74.453873 178.372543,74.316315 
	C179.077637,74.376968 179.476013,74.462296 179.946991,74.685349 
	C180.157730,74.990242 180.332855,75.096397 180.544952,75.141556 
	C180.740662,75.794960 180.936371,76.448372 181.141693,77.444023 
z"/>
<path fill="#6639F8" opacity="1.000000" stroke="none" 
	d="
M89.494293,63.706203 
	C90.761948,63.095325 92.489899,62.078491 94.222191,62.071045 
	C118.484596,61.966763 142.747620,62.018494 167.010391,61.968147 
	C169.130478,61.963749 171.249664,61.508831 173.763626,61.089775 
	C174.464951,61.412762 174.771912,61.909145 174.644287,62.699116 
	C172.517166,63.177605 170.824600,63.362514 169.132050,63.547421 
	C148.883255,63.637241 128.634476,63.736870 108.385628,63.810959 
	C102.242760,63.833439 96.099625,63.785355 89.494293,63.706203 
z"/>
<path fill="#5E33F4" opacity="1.000000" stroke="none" 
	d="
M170.469513,138.533386 
	C169.791443,139.090439 168.662216,139.940582 167.530487,139.943924 
	C142.398026,140.018066 117.265297,140.007172 92.132698,139.963272 
	C91.217186,139.961670 90.302551,139.461868 89.230957,138.863861 
	C116.055336,138.499695 143.036270,138.465897 170.469513,138.533386 
z"/>
<path fill="#ECE3FA" opacity="1.000000" stroke="none" 
	d="
M88.984924,166.952591 
	C87.856682,166.750992 86.728439,166.549408 85.280952,166.217987 
	C86.845543,165.725769 88.727928,165.057617 90.613441,165.048676 
	C107.732971,164.967331 124.853088,164.980240 141.972916,165.019791 
	C145.160370,165.027161 148.347260,165.276993 151.346863,165.700165 
	C148.740540,166.223953 146.321762,166.462479 143.442963,166.742203 
	C124.983604,166.839783 106.984261,166.896179 88.984924,166.952591 
z"/>
<path fill="#F0E7FC" opacity="1.000000" stroke="none" 
	d="
M146.990250,35.519516 
	C146.795380,35.936867 146.600510,36.354218 146.201141,36.889297 
	C127.310402,37.004749 108.624191,37.002476 89.094284,36.999664 
	C87.500450,36.998848 86.750305,36.998573 86.000160,36.998295 
	C86.005165,36.817120 86.010170,36.635948 86.028778,36.182953 
	C86.860817,35.761433 87.679260,35.611740 89.225403,35.359497 
	C104.984467,35.204605 120.015831,35.152256 135.047195,35.099907 
	C135.473358,35.157410 135.899521,35.214909 137.093414,35.259460 
	C140.904190,35.337509 143.947220,35.428513 146.990250,35.519516 
z"/>
<path fill="#6539FF" opacity="1.000000" stroke="none" 
	d="
M176.995804,90.995163 
	C176.995804,90.995163 176.995178,91.447716 176.993652,91.673935 
	C147.974762,91.951958 118.957390,92.003761 89.475647,91.995453 
	C89.011269,91.935349 89.004684,91.468742 89.470573,91.234634 
	C118.956245,90.998741 147.976028,90.996948 176.995804,90.995163 
z"/>
<path fill="#E5DEF0" opacity="1.000000" stroke="none" 
	d="
M158.998337,107.999390 
	C138.393127,107.999390 118.287483,107.999390 98.181831,107.999390 
	C98.183121,107.750923 98.184410,107.502464 98.185699,107.253998 
	C124.061737,107.253998 149.937759,107.253998 175.813797,107.253998 
	C175.816635,107.502464 175.819473,107.750923 175.822311,107.999390 
	C170.380844,107.999390 164.939362,107.999390 158.998337,107.999390 
z"/>
<path fill="#EAE1F4" opacity="1.000000" stroke="none" 
	d="
M108.966644,44.411095 
	C120.146919,44.000206 131.297745,43.964016 142.447845,44.037598 
	C144.213470,44.049248 145.975845,44.555931 148.016037,45.210674 
	C135.416702,45.673523 122.541039,45.759430 109.271332,45.744621 
	C108.897186,45.369949 108.917068,45.095993 108.966644,44.411095 
z"/>
<path fill="#6637FF" opacity="1.000000" stroke="none" 
	d="
M160.994186,155.006760 
	C160.994186,155.006760 160.989471,155.451904 160.988495,155.674408 
	C139.969193,155.944061 118.950867,155.991180 97.472809,155.943756 
	C97.013069,155.849213 97.008957,155.417633 97.474976,155.206589 
	C118.958733,154.999283 139.976456,155.003021 160.994186,155.006760 
z"/>
<path fill="#ECE3F6" opacity="1.000000" stroke="none" 
	d="
M103.013474,162.998779 
	C98.396988,162.998779 94.277306,162.998779 90.157631,162.998779 
	C90.163841,162.749115 90.170044,162.499451 90.176254,162.249786 
	C108.724350,162.249786 127.272438,162.249786 145.820526,162.249786 
	C145.822495,162.499451 145.824448,162.749115 145.826416,162.998779 
	C131.721039,162.998779 117.615662,162.998779 103.013474,162.998779 
z"/>
<path fill="#E4D5F6" opacity="1.000000" stroke="none" 
	d="
M63.864754,126.056267 
	C61.137329,122.268028 58.446854,118.066475 55.748604,113.488174 
	C61.048046,115.603928 62.833038,120.390190 63.864754,126.056267 
z"/>
<path fill="#693BF7" opacity="1.000000" stroke="none" 
	d="
M96.558884,17.893841 
	C96.824265,18.394983 96.713326,19.196413 96.447090,19.251844 
	C91.905464,20.197380 87.350761,21.086504 82.778343,21.867470 
	C82.329185,21.944183 81.745262,21.231867 81.119537,20.535133 
	C86.046883,19.405313 91.078583,18.626143 96.558884,17.893841 
z"/>
<path fill="#E4D7F6" opacity="1.000000" stroke="none" 
	d="
M92.838943,45.922237 
	C90.973473,46.760323 88.843277,47.293541 86.338303,47.837013 
	C86.283455,46.915859 86.562958,45.203438 86.930099,45.184437 
	C88.798996,45.087719 90.690582,45.429253 92.838943,45.922237 
z"/>
<path fill="#6336F3" opacity="1.000000" stroke="none" 
	d="
M147.340408,35.432114 
	C143.947220,35.428513 140.904190,35.337509 137.407211,35.173256 
	C140.735092,34.501602 144.516907,33.903194 148.675461,33.130047 
	C149.560379,33.216705 150.068558,33.478104 150.712006,34.166420 
	C150.513336,34.870461 150.179398,35.147579 149.845474,35.424702 
	C149.127167,35.398041 148.408875,35.371376 147.340408,35.432114 
z"/>
<path fill="#693BF7" opacity="1.000000" stroke="none" 
	d="
M116.610641,19.066643 
	C114.686653,19.389624 112.434418,19.596968 110.096657,19.464737 
	C112.101555,19.067112 114.191963,19.009060 116.610641,19.066643 
z"/>
<path fill="#C5ACFF" opacity="1.000000" stroke="none" 
	d="
M143.902969,166.701019 
	C146.321762,166.462479 148.740540,166.223953 151.583878,165.972610 
	C151.987793,166.169434 151.967163,166.379074 151.527161,166.840118 
	C150.399841,167.097733 149.691879,167.103973 148.983932,167.110214 
	C148.532654,167.074539 148.081360,167.038864 146.909149,167.003723 
	C145.426453,166.903168 144.664719,166.802094 143.902969,166.701019 
z"/>
<path fill="#6336F3" opacity="1.000000" stroke="none" 
	d="
M75.389969,36.997551 
	C76.796661,36.428383 78.582306,35.893684 80.646179,35.587273 
	C79.205910,36.221043 77.487427,36.626534 75.389969,36.997551 
z"/>
<path fill="#693CEB" opacity="1.000000" stroke="none" 
	d="
M148.825500,167.389832 
	C149.691879,167.103973 150.399841,167.097733 151.458908,167.148636 
	C150.452011,168.224960 149.093979,169.244141 147.412140,170.355270 
	C147.614578,169.521317 148.140823,168.595383 148.825500,167.389832 
z"/>
<path fill="#693BF7" opacity="1.000000" stroke="none" 
	d="
M107.915695,18.502819 
	C107.106354,18.730350 106.103996,18.665302 105.046684,18.266775 
	C105.902039,18.025612 106.812363,18.117924 107.915695,18.502819 
z"/>
<path fill="#7242F9" opacity="1.000000" stroke="none" 
	d="
M169.511108,63.649864 
	C170.824600,63.362514 172.517166,63.177605 174.592773,62.995846 
	C173.280609,63.250099 171.585388,63.501202 169.511108,63.649864 
z"/>
<path fill="#E4D5F6" opacity="1.000000" stroke="none" 
	d="
M66.809341,129.508636 
	C66.049484,129.065048 65.156860,128.360184 64.233078,127.327576 
	C65.026802,127.749008 65.851692,128.498199 66.809341,129.508636 
z"/>
<path fill="#6336F3" opacity="1.000000" stroke="none" 
	d="
M84.274445,35.581451 
	C83.873085,35.101994 83.837875,34.671803 83.802673,34.241615 
	C84.471855,34.435516 85.141052,34.629417 85.929993,35.033466 
	C85.580032,35.372646 85.110306,35.501682 84.274445,35.581451 
z"/>
<path fill="#EDE2FE" opacity="1.000000" stroke="none" 
	d="
M179.874405,74.547615 
	C179.476013,74.462296 179.077637,74.376968 178.115799,74.186005 
	C177.371674,74.015747 177.191010,73.951141 177.010330,73.886536 
	C178.192917,73.834023 179.375519,73.781509 180.446289,74.039803 
	C180.181122,74.416267 180.027771,74.481941 179.874405,74.547615 
z"/>
<path fill="#E4D7F6" opacity="1.000000" stroke="none" 
	d="
M82.354248,47.429119 
	C81.942909,47.322056 81.693901,47.060333 81.444893,46.798611 
	C81.553360,46.695530 81.750740,46.496887 81.757477,46.503151 
	C82.021332,46.748627 82.267822,47.012760 82.354248,47.429119 
z"/>
<path fill="#E7DAF8" opacity="1.000000" stroke="none" 
	d="
M154.976379,45.204426 
	C154.010162,45.587322 152.893631,45.647396 151.365112,45.633755 
	C151.129990,45.169662 151.306885,44.779285 151.991913,44.194374 
	C152.667923,43.999844 152.835800,43.999844 153.003662,43.999847 
	C153.611130,44.293766 154.218613,44.587685 154.976379,45.204426 
z"/>
<path fill="#B89CFE" opacity="1.000000" stroke="none" 
	d="
M149.865280,35.590172 
	C150.179398,35.147579 150.513336,34.870461 150.970520,34.292274 
	C150.922485,34.642773 150.751205,35.294334 150.281097,36.010170 
	C149.982285,36.074448 149.885086,35.755638 149.865280,35.590172 
z"/>
<path fill="#E7DAF8" opacity="1.000000" stroke="none" 
	d="
M86.192482,37.234997 
	C86.750305,36.998573 87.500450,36.998848 88.625679,37.000866 
	C88.128777,37.158970 87.256790,37.315334 86.192482,37.234997 
z"/>
<path fill="#5E33F4" opacity="1.000000" stroke="none" 
	d="
M174.960938,139.978226 
	C174.073578,139.759430 173.218201,139.528839 172.203629,138.994461 
	C172.813339,138.677322 173.582275,138.663956 174.653854,139.073837 
	C174.956512,139.497070 174.966446,139.903625 174.966446,139.903625 
	C174.966446,139.903625 174.992920,139.966431 174.960938,139.978226 
z"/>
<path fill="#EAE1F4" opacity="1.000000" stroke="none" 
	d="
M160.232803,43.415913 
	C160.178467,43.595539 160.049362,43.655731 159.920258,43.715927 
	C159.999527,43.576111 160.078781,43.436295 160.232803,43.415913 
z"/>
<path fill="#693BF7" opacity="1.000000" stroke="none" 
	d="
M78.645752,20.863892 
	C78.464523,21.097897 77.960999,21.348497 77.276825,21.430248 
	C77.505280,21.134428 77.914368,21.007460 78.645752,20.863892 
z"/>
<path fill="#9579EF" opacity="1.000000" stroke="none" 
	d="
M176.730438,73.986084 
	C177.191010,73.951141 177.371674,74.015747 177.809097,74.210678 
	C177.476318,74.453873 176.886795,74.566757 176.110748,74.520493 
	C176.099655,74.269447 176.275101,74.177544 176.730438,73.986084 
z"/>
<path fill="#E4D5F6" opacity="1.000000" stroke="none" 
	d="
M55.836906,112.855026 
	C55.521671,112.649879 55.245338,112.133926 54.986885,111.307602 
	C55.295116,111.512901 55.585468,112.028549 55.836906,112.855026 
z"/>
<path fill="#EDE2FE" opacity="1.000000" stroke="none" 
	d="
M95.785103,73.370224 
	C96.010147,73.324837 96.138870,73.381409 96.267601,73.437988 
	C96.074661,73.449379 95.881729,73.460777 95.785103,73.370224 
z"/>
<path fill="#EAE1F4" opacity="1.000000" stroke="none" 
	d="
M152.908615,43.847576 
	C152.835800,43.999844 152.667923,43.999844 152.248199,43.999844 
	C152.268753,43.898331 152.541153,43.796818 152.908615,43.847576 
z"/>
<path fill="#7343FA" opacity="1.000000" stroke="none" 
	d="
M175.088638,139.827271 
	C174.966446,139.903625 174.956512,139.497070 174.973450,139.294922 
	C175.314774,139.221970 175.388245,139.441345 175.088638,139.827271 
z"/>
<path fill="#EAE1F4" opacity="1.000000" stroke="none" 
	d="
M105.120148,43.215961 
	C105.312912,43.123165 105.567894,43.314335 105.885712,43.789116 
	C105.692894,43.882347 105.437492,43.691418 105.120148,43.215961 
z"/>
<path fill="#E7DAF8" opacity="1.000000" stroke="none" 
	d="
M90.001083,42.001408 
	C89.920578,42.035683 89.838989,42.068550 89.877319,42.049656 
	C89.997238,41.997894 90.000000,42.000000 90.001083,42.001408 
z"/>
<path fill="#E7DAF8" opacity="1.000000" stroke="none" 
	d="
M161.537323,41.477386 
	C161.560806,41.520611 161.513855,41.434166 161.537323,41.477386 
z"/>
<path fill="#E5DEF0" opacity="1.000000" stroke="none" 
	d="
M89.479370,107.464577 
	C89.521278,107.442299 89.437454,107.486855 89.479370,107.464577 
z"/>
<path fill="#9579EF" opacity="1.000000" stroke="none" 
	d="
M105.800980,74.292259 
	C105.789612,74.449028 105.476517,74.537285 105.032700,74.505577 
	C105.101059,74.331657 105.300156,74.277702 105.800980,74.292259 
z"/>
<path fill="#9579EF" opacity="1.000000" stroke="none" 
	d="
M179.946991,74.685349 
	C180.027771,74.481941 180.181122,74.416267 180.583435,74.340591 
	C180.832382,74.330582 180.729904,74.750153 180.637421,74.945854 
	C180.332855,75.096397 180.157730,74.990242 179.946991,74.685349 
z"/>
<path fill="#693CEB" opacity="1.000000" stroke="none" 
	d="
M143.442963,166.742203 
	C144.664719,166.802094 145.426453,166.903168 146.571640,167.045227 
	C145.878036,167.390167 144.801743,167.955872 143.723831,167.959015 
	C126.315910,168.009689 108.907784,167.993652 91.499748,167.965302 
	C90.862282,167.964264 90.225266,167.684143 89.286484,167.243347 
	C106.984261,166.896179 124.983604,166.839783 143.442963,166.742203 
z"/>
<path fill="#6336F3" opacity="1.000000" stroke="none" 
	d="
M134.748291,34.799332 
	C120.015831,35.152256 104.984467,35.204605 89.489517,35.195351 
	C89.568443,34.788208 90.112595,34.138573 90.653244,34.141468 
	C105.252182,34.219734 119.850761,34.364880 134.748291,34.799332 
z"/>
<path fill="#7041EF" opacity="1.000000" stroke="none" 
	d="
M176.687927,90.715683 
	C147.976028,90.996948 118.956245,90.998741 89.467682,91.001328 
	C90.232162,90.668678 91.464844,90.046707 92.698761,90.044220 
	C119.784775,89.989479 146.870911,89.999702 173.957016,90.022400 
	C174.764816,90.023071 175.572372,90.292221 176.687927,90.715683 
z"/>
<path fill="#6C40ED" opacity="1.000000" stroke="none" 
	d="
M107.150223,122.967834 
	C107.132576,122.631615 107.477898,122.047623 107.824326,122.046959 
	C130.400589,122.003922 152.976944,122.008095 175.559372,122.992294 
	C152.877472,122.992294 130.195587,122.992294 107.150223,122.967834 
z"/>
<path fill="#6F43EE" opacity="1.000000" stroke="none" 
	d="
M160.688660,154.723923 
	C139.976456,155.003021 118.958733,154.999283 97.473022,154.990799 
	C98.073509,154.658524 99.141319,154.047913 100.210533,154.045456 
	C119.793335,154.000824 139.376312,154.026306 158.959213,154.058578 
	C159.434052,154.059357 159.908493,154.308029 160.688660,154.723923 
z"/>
</svg>